#!OML:ASF F:\VICON\USERDATA\INSTALL\rory3\rory3.ASF
:FULLY-SPECIFIED
:DEGREES
597
root 3.86732 15.3078 -16.8195 15.3526 14.1247 -5.15883
lowerback 8.6889 0.854658 6.17542
upperback -5.05376 2.84781 8.49337
thorax -10.5775 1.34059 5.26554
lowerneck 4.23909 -3.01876 -5.57723
upperneck 1.45512 -4.26815 6.62014
head 0.00655301 -2.19187 3.14273
rclavicle 1.39149e-014 2.22639e-014
rhumerus 49.2149 69.997 -34.4995
rradius 86.7766
rwrist 23.6898
rhand -9.69968 11.1561
rfingers 7.12502
rthumb 16.2728 -18.1811
lclavicle 1.39149e-014 2.22639e-014
lhumerus 80.5291 -50.7535 -2.65015
lradius 111.798
lwrist -45.2923
lhand -15.1075 8.8589
lfingers 7.12502
lthumb 11.0611 38.5474
rfemur -52.6977 -10.6191 43.4988
rtibia 56.5251
rfoot -30.9832 -30.316
rtoes 12.5763
lfemur -39.8653 27.0365 -39.7572
ltibia 68.1462
lfoot -25.1633 22.5037
ltoes -34.8528
598
root 3.81331 15.3649 -16.7804 15.3953 15.2007 -5.0858
lowerback 8.17604 1.05961 6.01029
upperback -4.92574 3.03793 8.56564
thorax -10.1472 1.45354 5.39789
lowerneck 4.13028 -3.42884 -5.71852
upperneck 1.01947 -4.79986 6.86776
head -0.0674923 -2.45883 3.25941
rclavicle -1.70955e-014 1.27222e-014
rhumerus 50.2157 69.902 -30.0284
rradius 89.8192
rwrist 22.0179
rhand -12.2856 11.4657
rfingers 7.12502
rthumb 13.7818 -18.0578
lclavicle -1.70955e-014 1.27222e-014
lhumerus 77.8375 -50.1229 -4.59315
lradius 113.148
lwrist -44.1765
lhand -19.4378 9.57929
lfingers 7.12502
lthumb 6.88254 39.4474
rfemur -52.2212 -10.7548 43.5596
rtibia 55.5983
rfoot -31.3311 -30.6905
rtoes 13.4349
lfemur -39.2298 26.6857 -39.2605
ltibia 67.1583
lfoot -25.0715 22.2584
ltoes -32.6035
599
root 3.76692 15.4291 -16.7564 15.5075 16.2801 -5.13888
lowerback 7.71389 1.1045 5.80387
upperback -4.33709 3.00392 9.09868
thorax -9.26169 1.48236 6.08961
lowerneck 1.59948 -3.83803 -6.72911
upperneck 1.49624 -5.27612 7.03846
head 0.596702 -2.65985 3.44
rclavicle -3.77691e-014 -2.22639e-014
rhumerus 54.1687 69.2819 -22.5402
rradius 92.5331
rwrist 19.7729
rhand -14.5653 13.9266
rfingers 7.12502
rthumb 11.584 -15.7332
lclavicle -3.77691e-014 -2.22639e-014
lhumerus 73.5766 -48.9431 -5.13395
lradius 113.968
lwrist -43.7881
lhand -23.6486 9.66532
lfingers 7.12502
lthumb 2.81675 39.6265
rfemur -51.8597 -10.772 43.678
rtibia 54.5657
rfoot -31.4404 -31.066
rtoes 14.4282
lfemur -38.8047 26.1632 -38.8076
ltibia 66.0626
lfoot -24.597 22.5857
ltoes -31.2323
600
root 3.73181 15.494 -16.7613 15.9942 17.471 -5.08102
lowerback 7.23485 1.47697 6.10076
upperback -4.49818 3.50223 9.02741
thorax -9.16919 1.70837 5.77186
lowerneck 1.71286 -4.53223 -6.8888
upperneck 1.14909 -6.20234 7.44517
head 0.55713 -3.12472 3.60586
rclavicle 1.90833e-014 -2.8625e-014
rhumerus 49.7161 68.8443 -23.4435
rradius 94.4489
rwrist 17.2294
rhand -15.2819 18.8096
rfingers 7.12502
rthumb 10.8929 -10.8878
lclavicle 1.90833e-014 -2.8625e-014
lhumerus 71.2365 -48.7934 -7.02299
lradius 114.703
lwrist -44.1426
lhand -26.8823 9.32077
lfingers 7.12502
lthumb -0.30645 39.3003
rfemur -52.0277 -11.0055 43.8241
rtibia 53.4748
rfoot -31.4964 -31.1611
rtoes 15.861
lfemur -38.8357 25.1787 -38.7724
ltibia 64.9215
lfoot -24.1293 23.0876
ltoes -29.8635
601
root 3.68198 15.5689 -16.7452 16.5126 18.7695 -4.73785
lowerback 6.81698 1.70112 5.78212
upperback -4.67144 3.75217 9.0576
thorax -9.15106 1.85807 5.95809
lowerneck 2.06634 -5.03613 -7.02446
upperneck 0.496933 -6.87195 7.80401
head 0.35843 -3.4674 3.76722
rclavicle -9.93923e-015 -6.36111e-014
rhumerus 46.6711 69.0762 -22.7062
rradius 96.0255
rwrist 16.4693
rhand -19.1619 20.6079
rfingers 7.12502
rthumb 7.14888 -9.25131
lclavicle -9.93923e-015 -6.36111e-014
lhumerus 67.8768 -48.8021 -7.65868
lradius 115.153
lwrist -44.1952
lhand -29.7083 7.21996
lfingers 7.12502
lthumb -3.03574 37.1781
rfemur -51.9856 -11.1389 43.6686
rtibia 52.2453
rfoot -31.6508 -31.5013
rtoes 17.3996
lfemur -38.4847 24.1034 -38.7024
ltibia 63.6504
lfoot -24.0812 22.7321
ltoes -27.2194
602
root 3.63561 15.6655 -16.6948 16.9028 20.1846 -4.26393
lowerback 6.30546 1.86756 5.22195
upperback -4.80647 3.89206 9.13737
thorax -9.04948 1.9737 6.35553
lowerneck 2.59963 -5.5437 -7.07717
upperneck -0.375654 -7.54212 8.00767
head 0.049714 -3.81487 3.87425
rclavicle 6.04305e-014 5.40694e-014
rhumerus 44.1642 69.6538 -21.2121
rradius 97.385
rwrist 15.977
rhand -22.4285 24.1488
rfingers 7.12502
rthumb 3.995 -5.7935
lclavicle 6.04305e-014 5.40694e-014
lhumerus 64.4917 -49.2659 -8.22199
lradius 115.944
lwrist -45.2746
lhand -30.7632 8.4033
lfingers 7.12502
lthumb -4.05445 38.3445
rfemur -51.4564 -11.4492 43.3224
rtibia 50.7887
rfoot -31.5933 -32.0646
rtoes 18.2533
lfemur -37.5206 23.0938 -38.4121
ltibia 62.1916
lfoot -23.7114 22.1212
ltoes -25.7185
603
root 3.5946 15.7788 -16.63 17.2697 21.8888 -3.64536
lowerback 6.55494 1.93045 5.36595
upperback -5.51456 4.0576 8.55032
thorax -9.93525 2.01788 5.61339
lowerneck 2.89596 -6.17536 -6.64546
upperneck -0.221612 -8.39073 8.4426
head 0.119443 -4.2454 3.94027
rclavicle -4.09496e-014 1.27222e-014
rhumerus 36.9763 70.415 -25.2606
rradius 97.9231
rwrist 15.5354
rhand -23.0064 32.1079
rfingers 7.12502
rthumb 3.43688 2.15581
lclavicle -4.09496e-014 1.27222e-014
lhumerus 61.4587 -50.4026 -9.37552
lradius 116.401
lwrist -45.5585
lhand -32.6974 6.58093
lfingers 7.12502
lthumb -5.92207 36.4782
rfemur -50.7034 -12.0113 42.8403
rtibia 49.1205
rfoot -31.2068 -32.8991
rtoes 17.6827
lfemur -36.2245 21.8473 -38.0329
ltibia 60.5949
lfoot -22.8274 21.8143
ltoes -25.8672
604
root 3.55204 15.8909 -16.5803 17.6757 23.3446 -3.37347
lowerback 5.90337 2.01819 4.82302
upperback -5.46318 4.08914 8.92428
thorax -9.56418 2.09976 6.3433
lowerneck 2.17992 -6.6152 -7.26705
upperneck -0.160093 -8.96555 8.71846
head 0.360007 -4.5195 4.11143
rclavicle 5.32743e-014 -5.08889e-014
rhumerus 34.055 70.6192 -24.4138
rradius 98.2617
rwrist 15.8829
rhand -24.6857 37.5951
rfingers 7.12502
rthumb 1.81511 7.62303
lclavicle 5.32743e-014 -5.08889e-014
lhumerus 56.0764 -50.6371 -7.13657
lradius 116.184
lwrist -45.4213
lhand -34.6885 2.28963
lfingers 7.12502
lthumb -7.84412 32.1241
rfemur -49.969 -11.8711 42.5006
rtibia 47.2978
rfoot -30.8951 -33.8198
rtoes 17.6923
lfemur -35.4034 20.7011 -37.5145
ltibia 59.0397
lfoot -21.6758 21.7345
ltoes -26.5831
605
root 3.50068 15.9913 -16.5546 18.2511 24.5574 -3.37166
lowerback 5.86435 2.02336 4.78039
upperback -5.59038 4.14292 9.20736
thorax -9.72227 2.15048 6.68285
lowerneck 0.785994 -6.911 -7.98449
upperneck 0.244922 -9.31864 9.11264
head 0.832582 -4.66661 4.30856
rclavicle 4.8901e-014 1.90833e-014
rhumerus 31.2789 70.8155 -24.0442
rradius 98.0889
rwrist 17.1804
rhand -26.165 42.9766
rfingers 7.12502
rthumb 0.386429 12.9972
lclavicle 4.8901e-014 1.90833e-014
lhumerus 49.8956 -50.9848 -4.92749
lradius 116.671
lwrist -46.8964
lhand -33.1729 3.6021
lfingers 7.12502
lthumb -6.38113 33.486
rfemur -49.4923 -10.9381 42.2657
rtibia 45.4526
rfoot -30.8881 -34.7457
rtoes 18.8207
lfemur -35.2358 19.5057 -36.9786
ltibia 57.5979
lfoot -20.545 21.7715
ltoes -27.3912
